<svg id="svg" version="1.1" xmlns="http://www.w3.org/2000/svg" style="display: block;" viewBox="0 0 306 307"><path d="M0,0 L65,0 L76,6 L81,9 L84,12 L89,16 L94,18 L94,249 L84,256 L81,258 L71,261 L68,264 L62,267 L60,267 L60,269 L50,274 L40,280 L31,286 L23,290 L7,299 L-5,306 L-6,307 L-64,307 L-74,301 L-76,299 L-83,296 L-92,291 L-95,290 L-96,288 L-100,287 L-100,285 L-106,283 L-111,280 L-111,278 L-115,277 L-115,275 L-119,273 L-131,268 L-142,262 L-145,258 L-145,256 L-151,255 L-152,252 L-157,251 L-162,248 L-163,234 L-163,177 L-162,100 L-157,96 L-154,93 L-144,89 L-140,85 L-126,76 L-122,76 L-122,74 L-111,68 L-103,64 L-97,60 L-92,59 L-92,57 L-78,49 L-76,49 L-76,47 L-71,45 L-62,40 L-53,35 L-46,31 L-44,31 L-44,29 L-38,27 L-28,21 L-19,16 L-10,11 L-6,8 L-3,8 L-3,202 L-6,203 L-12,201 L-17,196 L-25,191 L-28,190 L-28,188 L-34,186 L-36,185 L-36,183 L-41,182 L-46,179 L-54,176 L-67,169 L-67,119 L-69,119 L-69,121 L-82,126 L-84,126 L-84,128 L-95,134 L-98,136 L-98,210 L-95,213 L-95,215 L-89,217 L-78,223 L-72,226 L-72,228 L-68,229 L-63,232 L-51,239 L-44,243 L-42,245 L-37,247 L-30,246 L-28,244 L-23,242 L-21,240 L-18,240 L-18,238 L-9,233 L-6,232 L-6,230 L4,227 L4,225 L11,222 L15,218 L23,214 L28,211 L30,211 L30,56 L25,54 L9,45 L4,42 L4,40 L0,39 Z " transform="translate(172,0)" style="fill: #2E8DBC;"/><path d="M0,0 L69,0 L69,307 L-71,307 L-69,304 L-58,298 L-42,289 L-33,284 L-23,278 L-10,270 L-5,269 L-5,267 L3,263 L5,263 L6,260 L16,257 L26,250 L30,249 L29,17 L25,16 L22,13 L9,6 L0,1 Z " transform="translate(237,0)" style="fill: #FAFDFD;"/><path d="M0,0 L171,0 L170,5 L162,9 L160,9 L160,11 L153,14 L152,16 L144,19 L141,22 L134,25 L128,27 L128,31 L119,36 L110,41 L101,46 L96,47 L96,49 L85,55 L80,57 L80,59 L70,64 L68,66 L61,69 L52,74 L50,74 L50,76 L43,79 L29,88 L15,94 L12,97 L8,98 L8,246 L9,250 L15,252 L26,258 L26,260 L30,260 L30,262 L35,264 L42,268 L53,272 L58,277 L61,278 L61,280 L66,282 L72,285 L72,287 L77,288 L77,290 L83,291 L92,297 L97,299 L105,304 L108,307 L0,307 Z " transform="translate(0,0)" style="fill: #F6FBFC;"/><path d="M0,0 L5,0 L5,2 L10,4 L31,16 L31,171 L23,176 L16,179 L11,184 L5,185 L5,187 L-3,190 L-5,190 L-5,192 L-15,198 L-17,198 L-17,200 L-22,203 L-28,206 L-29,207 L-35,207 L-35,205 L-41,204 L-44,201 L-53,197 L-56,194 L-69,187 L-76,185 L-82,181 L-94,175 L-98,170 L-98,96 L-91,91 L-85,88 L-83,88 L-83,86 L-77,83 L-68,81 L-68,79 L-66,79 L-66,129 L-61,131 L-48,138 L-40,143 L-37,144 L-37,146 L-31,148 L-21,154 L-16,157 L-11,159 L-11,161 L-4,163 L-1,164 L-1,1 Z " transform="translate(171,40)" style="fill: #F7FCFD;"/><path d="M0,0 L1,0 L1,39 L3,40 L0,41 L-1,204 L-4,203 L-3,202 L-3,16 L-2,8 L-5,7 L-1,4 Z " transform="translate(171,0)" style="fill: #8ACAE0;"/><path d="M0,0 L1,0 L1,103 L0,103 L-1,88 L-1,2 Z M-1,103 Z " transform="translate(8,98)" style="fill: #ABD3E1;"/><path d="M0,0 L6,2 L9,4 L9,6 L14,7 L14,154 L13,154 L12,149 L13,8 L7,6 L0,1 Z M12,154 Z " transform="translate(253,10)" style="fill: #87B9CF;"/><path d="M0,0 L1,0 L2,33 L3,47 L8,50 L12,51 L15,54 L19,55 L21,59 L18,59 L18,57 L14,56 L1,49 L-1,45 L-1,1 Z " transform="translate(8,201)" style="fill: #9BCBDD;"/><path d="M0,0 L3,1 L-5,5 L-10,6 L-12,10 L-15,12 L-16,89 L-17,89 L-17,10 L-12,8 L-11,5 L-2,1 Z " transform="translate(26,88)" style="fill: #6491A3;"/><path d="M0,0 Z M-2,1 L0,1 L-1,4 L-11,10 L-21,15 L-30,21 L-33,23 L-38,23 L-38,21 L-29,16 L-24,14 L-18,10 L-14,10 L-13,7 L-9,5 L-6,5 L-6,3 Z " transform="translate(166,6)" style="fill: #8ACAE0;"/><path d="M0,0 L1,0 L1,85 L0,85 L-1,1 Z " transform="translate(266,164)" style="fill: #87B9CF;"/><path d="M0,0 L5,2 L17,8 L18,11 L27,14 L30,16 L30,18 L36,19 L36,21 L39,22 L34,21 L29,19 L24,15 L12,9 L4,4 L0,2 Z " transform="translate(100,226)" style="fill: #9DD4E5;"/><path d="M0,0 L4,1 L13,5 L13,7 L19,9 L21,10 L21,12 L26,13 L35,19 L32,20 L23,14 L11,8 L11,6 L6,5 L0,1 Z " transform="translate(123,178)" style="fill: #86C6DE;"/></svg>